<?xml version="1.0" encoding="iso-8859-1"?>
<!-- Generator: Adobe Illustrator 19.0.0, SVG Export Plug-In . SVG Version: 6.00 Build 0)  -->
<svg version="1.1" id="Layer_1" xmlns="http://www.w3.org/2000/svg" xmlns:xlink="http://www.w3.org/1999/xlink" viewBox="0 0 512 512" xml:space="preserve">
<g>
	<g>
		<g>
			<path d="M102.767,333.875l-7.381,4.267c-4.087,2.364-5.487,7.578-3.123,11.665c1.579,2.731,4.446,4.258,7.398,4.258
				c1.451,0,2.918-0.367,4.258-1.143l7.381-4.267c4.079-2.355,5.487-7.578,3.123-11.657
				C112.06,332.919,106.837,331.511,102.767,333.875z"/>
			<path d="M172.732,396.868c-4.07-2.355-9.301-0.956-11.657,3.123l-4.267,7.39c-2.355,4.087-0.956,9.301,3.123,11.657
				c1.34,0.776,2.807,1.143,4.258,1.143c2.953,0,5.82-1.528,7.398-4.267l4.267-7.39
				C178.219,404.446,176.819,399.224,172.732,396.868z"/>
			<path d="M112.009,161.075l-7.39-4.267c-4.087-2.364-9.301-0.964-11.656,3.123c-2.364,4.087-0.964,9.301,3.123,11.656l7.39,4.267
				c1.34,0.777,2.807,1.143,4.258,1.143c2.953,0,5.82-1.527,7.398-4.267C117.495,168.653,116.087,163.43,112.009,161.075z"/>
			<path d="M110.933,256.009c0-4.71-3.814-8.533-8.533-8.533H76.817c-4.71,0-8.533,3.823-8.533,8.533s3.814,8.533,8.533,8.533H102.4
				C107.11,264.542,110.933,260.727,110.933,256.009z"/>
			<path d="M256,34.133C133.658,34.133,34.133,133.666,34.133,256S133.658,477.867,256,477.867S477.867,378.334,477.867,256
				S378.342,34.133,256,34.133z M256,460.8c-112.922,0-204.8-91.878-204.8-204.8S143.078,51.2,256,51.2S460.8,143.078,460.8,256
				S368.922,460.8,256,460.8z"/>
			<path d="M339.268,115.132c1.34,0.777,2.807,1.143,4.258,1.143c2.953,0,5.811-1.527,7.398-4.267l4.267-7.39
				c2.355-4.087,0.956-9.301-3.123-11.656c-4.087-2.364-9.293-0.964-11.657,3.123l-4.267,7.39
				C333.781,107.554,335.181,112.777,339.268,115.132z"/>
			<path d="M404.975,179.268c1.451,0,2.918-0.367,4.258-1.143l7.381-4.267c4.088-2.364,5.487-7.578,3.123-11.665
				c-2.364-4.079-7.586-5.487-11.657-3.115l-7.381,4.267c-4.079,2.355-5.487,7.578-3.123,11.656
				C399.155,177.741,402.022,179.268,404.975,179.268z"/>
			<path d="M469.333,0H42.667C19.14,0,0,19.14,0,42.667v426.667C0,492.86,19.14,512,42.667,512H435.2
				c4.719,0,8.533-3.823,8.533-8.533s-3.814-8.533-8.533-8.533H42.667c-14.114,0-25.6-11.486-25.6-25.6V42.667
				c0-14.114,11.486-25.6,25.6-25.6h426.667c14.114,0,25.6,11.486,25.6,25.6v426.667c0,14.114-11.486,25.6-25.6,25.6
				c-4.719,0-8.533,3.823-8.533,8.533s3.814,8.533,8.533,8.533C492.86,512,512,492.86,512,469.333V42.667
				C512,19.14,492.86,0,469.333,0z"/>
			<path d="M415.915,340.412l-7.39-4.267c-4.079-2.364-9.301-0.964-11.657,3.123c-2.364,4.088-0.956,9.301,3.123,11.665l7.39,4.267
				c1.34,0.768,2.807,1.135,4.258,1.135c2.953,0,5.82-1.527,7.398-4.267C421.402,347.989,420.002,342.767,415.915,340.412z"/>
			<path d="M375.467,247.467h-95.445c-2.569-7.228-8.252-12.919-15.488-15.497V76.8c0-4.71-3.814-8.533-8.533-8.533
				s-8.533,3.823-8.533,8.533v155.17c-7.236,2.577-12.919,8.269-15.488,15.497h-10.112c-4.719,0-8.533,3.823-8.533,8.533
				s3.814,8.533,8.533,8.533h10.112c2.569,7.228,8.252,12.919,15.488,15.488v10.112c0,4.71,3.814,8.533,8.533,8.533
				s8.533-3.823,8.533-8.533V280.03c7.236-2.577,12.919-8.269,15.488-15.497h95.445c4.719,0,8.533-3.823,8.533-8.533
				S380.186,247.467,375.467,247.467z M256,264.533c-4.71,0-8.533-3.831-8.533-8.533c0-4.702,3.823-8.533,8.533-8.533
				s8.533,3.831,8.533,8.533C264.533,260.702,260.71,264.533,256,264.533z"/>
			<path d="M435.183,247.467h-25.591c-4.71,0-8.533,3.823-8.533,8.533s3.814,8.533,8.533,8.533h25.591
				c4.71,0,8.533-3.814,8.533-8.533C443.716,251.29,439.902,247.467,435.183,247.467z"/>
			<path d="M256,401.067c-4.719,0-8.533,3.823-8.533,8.533v25.6c0,4.71,3.814,8.533,8.533,8.533s8.533-3.823,8.533-8.533v-25.6
				C264.533,404.89,260.719,401.067,256,401.067z"/>
			<path d="M348.655,400.7c-2.364-4.079-7.586-5.495-11.657-3.123c-4.079,2.355-5.478,7.578-3.123,11.657l4.267,7.39
				c1.587,2.739,4.446,4.267,7.398,4.267c1.451,0,2.918-0.367,4.258-1.152c4.087-2.347,5.487-7.569,3.123-11.648L348.655,400.7z"/>
			<path d="M173.858,95.377c-2.364-4.079-7.595-5.487-11.657-3.115c-4.087,2.355-5.487,7.578-3.123,11.657l4.267,7.381
				c1.579,2.739,4.446,4.267,7.398,4.267c1.451,0,2.918-0.367,4.258-1.143c4.079-2.364,5.478-7.578,3.123-11.665L173.858,95.377z"/>
		</g>
	</g>
</g>
<g>
</g>
<g>
</g>
<g>
</g>
<g>
</g>
<g>
</g>
<g>
</g>
<g>
</g>
<g>
</g>
<g>
</g>
<g>
</g>
<g>
</g>
<g>
</g>
<g>
</g>
<g>
</g>
<g>
</g>
</svg>
