<?xml version="1.0" encoding="utf-8"?>
<!-- Svg Vector Icons : http://www.onlinewebfonts.com/icon -->
<!DOCTYPE svg PUBLIC "-//W3C//DTD SVG 1.1//EN" "http://www.w3.org/Graphics/SVG/1.1/DTD/svg11.dtd">
<svg version="1.1" xmlns="http://www.w3.org/2000/svg" xmlns:xlink="http://www.w3.org/1999/xlink" viewBox="0 0 1000 1000" xml:space="preserve">
	<metadata> Svg Vector Icons : http://www.onlinewebfonts.com/icon </metadata>
	<g>
		<g transform="translate(0.000000,511.000000) scale(0.100000,-0.100000)">
			<path d="M4770.3,4941.4C4629.4,4861.8,4510,4675,4510,4528c0-122.5,101.1-330.8,183.8-373.6c42.9-21.4,61.3-64.3,61.3-137.8c0-101.1-3.1-104.1-143.9-122.5c-1445.5-177.6-2563.3-863.6-3328.9-2045.7C975.9,1379.7,758.4,828.5,660.4,274.2L608.4-10.6H501.2c-137.8,0-290.9-91.9-355.3-211.3c-61.2-119.4-61.2-438,0-557.4c27.6-49,91.9-119.4,147-150c94.9-61.3,189.9-61.3,4707.1-61.3s4612.1,0,4707.1,61.3c137.8,82.7,192.9,208.2,192.9,434.9c0,303.2-150.1,483.9-407.3,483.9h-101.1l-52.1,284.8c-333.8,1877.3-1911,3368.7-3818.9,3604.6c-140.9,15.3-263.4,30.6-266.4,30.6c-6.1,0-9.2,49-9.2,107.2c0,70.4,18.4,116.4,45.9,125.6c73.5,30.6,199.1,266.4,199.1,379.7c0,150.1-134.8,355.3-275.6,428.8C5058.2,5030.2,4923.4,5027.2,4770.3,4941.4z M5168.4,4690.3c91.9-88.8,101.1-226.6,18.4-324.6c-42.9-55.1-88.8-73.5-186.8-73.5s-143.9,18.4-186.8,73.5c-128.6,156.2-15.3,401.2,186.8,401.2C5058.2,4766.9,5122.5,4739.3,5168.4,4690.3z M5863.6,3572.5C6626.2,3410.2,7303,3058,7866.5,2525.1c618.6-584.9,1062.7-1399.6,1218.9-2229.5c27.5-137.8,49-263.4,49-278.7S7737.9-13.7,5869.8-16.8C2795-25.9,2602.1-29,2568.4-78c-24.5-39.8-24.5-70.4,0-107.2c33.7-52,238.9-55.1,3518.8-64.3c2514.3-3.1,3497.4-15.3,3528-39.8c52.1-42.9,55.1-367.5,3-419.5c-52.1-52.1-9184.4-52.1-9236.5,0c-52.1,52-49,376.7,3,419.5c27.6,21.5,278.7,36.8,710.5,39.8c597.2,9.2,670.7,15.3,701.3,64.3c24.5,36.8,24.5,67.4,0,107.2c-30.6,45.9-94.9,52.1-483.9,61.3c-290.9,6.1-447.1,18.4-447.1,39.8c0,101,134.7,670.7,202.1,860.5C1603.7,2375.1,2883.8,3410.2,4461,3633.7C4770.3,3676.6,5529.8,3646,5863.6,3572.5z"/><path d="M1860.9-1278.5c-199.1-64.3-364.4-159.3-514.5-300.1C1067.8-1835.9,100-2904.7,100-2953.7c0-64.3,1895.7-1834.4,1966.1-1834.4c27.6,0,153.1,110.2,275.6,245c352.2,388.9,137.8,349.1,1984.5,367.5l1607.8,15.3l199.1,79.6c211.3,79.6,2661.3,1626.2,2777.7,1748.7c91.9,98,162.3,275.6,162.3,413.4c-3,156.2-94.9,352.2-205.2,431.8c-125.5,88.8-339.9,140.9-474.7,116.4c-67.4-12.3-529.8-287.9-1191.3-710.5c-1197.5-765.6-1255.6-799.3-1430.2-826.9c-67.4-9.2-539,3.1-1050.4,33.7c-866.7,45.9-934.1,55.1-983.1,113.3c-70.4,82.7-70.4,162.3,6.1,238.9c58.2,58.2,101.1,61.3,667.6,61.3c594.1,0,609.5,3.1,768.7,79.6c422.6,211.3,459.4,750.3,70.4,1035.1l-134.8,95l-1564.9,6.1C2347.9-1241.8,1955.9-1247.9,1860.9-1278.5z M5186.8-1597c70.5-79.6,88.8-125.6,88.8-245c0-82.7-21.4-174.6-49-214.4c-101.1-143.9-180.7-159.3-833-159.3c-581.9,0-615.6-3.1-710.5-67.4c-312.4-214.4-312.4-581.9,3.1-735c156.2-76.6,1914-171.5,2165.2-119.4c223.6,49,281.8,82.7,1519,872.8c1096.4,701.3,1148.4,725.8,1319.9,612.5c39.8-24.5,91.9-101,119.5-168.4c82.7-205.2,24.5-290.9-385.9-557.4c-1160.7-753.4-2229.5-1418-2364.3-1473.1c-150-61.3-220.5-64.3-1764-79.6c-1858.9-18.4-1711.9,9.2-2048.8-352.2L2053.9-4488l-94.9,88.8C997.3-3505,421.6-2962.9,421.6-2944.5c0,33.7,790.1,882,1062.7,1145.4c174.6,165.4,272.6,235.8,382.8,269.5c122.5,36.8,395.1,45.9,1687.4,39.8l1543.5-6.1L5186.8-1597z"/>
		</g>
	</g>
</svg>