<?xml version="1.0" encoding="iso-8859-1"?>
<!-- Generator: Adobe Illustrator 17.1.0, SVG Export Plug-In . SVG Version: 6.00 Build 0)  -->
<!DOCTYPE svg PUBLIC "-//W3C//DTD SVG 1.1//EN" "http://www.w3.org/Graphics/SVG/1.1/DTD/svg11.dtd">
<svg version="1.1" id="Capa_1" xmlns="http://www.w3.org/2000/svg" xmlns:xlink="http://www.w3.org/1999/xlink" viewBox="0 0 487.643 487.643" xml:space="preserve">
<g>
	<path d="M454.57,472.643h-51.083c-1.073-32.125-10.406-57.132-27.787-74.389c-23.592-23.424-53.221-23.484-54.407-23.474h-37.571
		v-11.933c24.001-9.945,39.175-26.501,48.42-40.857c14.433-22.41,17.689-43.977,17.82-44.884c0.052-0.356,0.078-0.716,0.078-1.076
		v-1.606c5.268-1.299,9.851-4.017,13.49-8.046c10.619-11.757,10.003-30.305,9.245-37.734c-0.577-5.654-3.135-10.399-7.398-13.722
		c-4.664-3.635-10.551-4.904-15.336-5.257v-22.429v-34.279c30.249-3.623,53.78-29.423,53.78-60.633
		c0-33.683-27.402-61.085-61.084-61.085c-4.142,0-7.5,3.358-7.5,7.5s3.358,7.5,7.5,7.5c25.411,0,46.084,20.674,46.084,46.085
		s-20.673,46.085-46.084,46.085c-0.033,0-0.065,0.004-0.098,0.005c-0.033,0-0.065-0.005-0.098-0.005c-4.142,0-7.5,3.358-7.5,7.5
		v33.827H152.603v-33.827c0-4.142-3.358-7.5-7.5-7.5c-25.411,0-46.085-20.674-46.085-46.085s20.674-46.085,46.085-46.085
		c25.411,0,46.085,20.674,46.085,46.085c0,4.142,3.358,7.5,7.5,7.5s7.5-3.358,7.5-7.5c0-11.389-3.142-22.054-8.591-31.19
		c0-0.016,0.002-0.032,0.002-0.048C197.6,35.674,218.273,15,243.684,15s46.083,20.674,46.083,46.085c0,4.142,3.358,7.5,7.5,7.5
		s7.5-3.358,7.5-7.5C304.767,27.403,277.365,0,243.684,0c-28.384,0-52.306,19.461-59.13,45.74
		c-10.652-9.035-24.421-14.501-39.45-14.501c-33.683,0-61.085,27.402-61.085,61.085c0,31.142,23.43,56.897,53.585,60.608v34.304
		v22.415c-4.815,0.335-10.792,1.591-15.514,5.271c-4.263,3.322-6.822,8.067-7.399,13.723c-0.757,7.429-1.373,25.978,9.245,37.734
		c3.679,4.074,8.326,6.804,13.667,8.085v1.567c0,0.36,0.026,0.72,0.078,1.076c0.131,0.907,3.387,22.474,17.82,44.884
		c9.245,14.356,24.419,30.912,48.42,40.857v11.933h-37.518c-1.262-0.01-30.872,0.053-54.46,23.474
		c-17.381,17.257-26.713,42.263-27.787,74.389H33.073c-4.142,0-7.5,3.358-7.5,7.5c0,4.142,3.358,7.5,7.5,7.5H454.57
		c4.142,0,7.5-3.358,7.5-7.5C462.07,476.001,458.712,472.643,454.57,472.643z M321.319,389.78
		c2.679,0.001,64.122,0.994,67.148,82.862H217.664c1.865-1.247,3.093-3.371,3.093-5.783c0-3.841-3.114-6.954-6.954-6.954
		c-3.841,0-6.955,3.114-6.955,6.954c0,2.412,1.229,4.536,3.093,5.783h-30.953v-81.574c0-0.44-0.045-0.869-0.118-1.289h32.551h64.801
		H321.319z M356.154,226.752c0.725,0.565,1.493,1.412,1.697,3.414c0.892,8.739-0.073,20.201-5.454,26.158
		c-0.721,0.798-1.508,1.456-2.358,2.008v-33.6C352.348,225.001,354.67,225.596,356.154,226.752z M135.067,256.324
		c-5.38-5.957-6.345-17.419-5.454-26.158c0.203-1.993,0.963-2.837,1.68-3.401c1.518-1.193,3.926-1.794,6.309-2.051v33.729
		C136.685,257.871,135.838,257.177,135.067,256.324z M168.411,314.331c-11.735-18.011-15.267-35.842-15.808-38.913v-80.681h182.436
		v80.679c-0.548,3.107-4.083,20.921-15.808,38.915c-16.808,25.798-41.945,39.985-74.713,42.169h-1.395
		C210.356,354.315,185.219,340.128,168.411,314.331z M242.394,371.484c0.161,0.01,0.323,0.016,0.485,0.016h1.886
		c0.162,0,0.324-0.005,0.485-0.016c8.499-0.551,16.299-1.832,23.473-3.668v6.965h-49.801v-6.965
		C226.095,369.652,233.894,370.933,242.394,371.484z M164.092,389.876c-0.063,0.39-0.104,0.786-0.104,1.193v81.574H99.175
		C101.915,398.539,152.51,390.694,164.092,389.876z"/>
	<circle cx="190.584" cy="227.69" r="8.951"/>
	<circle cx="297.059" cy="227.69" r="8.951"/>
	<circle cx="213.802" cy="442.177" r="6.955"/>
	<circle cx="213.802" cy="417.494" r="6.955"/>
	<path d="M241.887,276.416h3.868c9.666,0,17.554-7.664,17.961-17.232c0.026-0.252,0.039-0.509,0.039-0.768v-29.491
		c0-4.142-3.358-7.5-7.5-7.5c-4.142,0-7.5,3.358-7.5,7.5v29.491c0,1.654-1.346,3-3,3h-3.868c-1.654,0-3-1.346-3-3
		c0-4.142-3.358-7.5-7.5-7.5s-7.5,3.358-7.5,7.5C223.887,268.341,231.962,276.416,241.887,276.416z"/>
	<path d="M290.315,312.731c2.601-3.225,2.095-7.946-1.129-10.546c-3.225-2.601-7.946-2.094-10.546,1.129
		c-0.08,0.1-9.089,9.939-32.971,9.939c-24.809,0-36.903-10.295-37.494-10.812c-3.06-2.75-7.773-2.519-10.552,0.528
		c-2.791,3.061-2.572,7.805,0.489,10.595c0.658,0.6,16.468,14.689,47.557,14.689C276.895,328.254,289.034,314.32,290.315,312.731z"
		/>
</g>
<g>
</g>
<g>
</g>
<g>
</g>
<g>
</g>
<g>
</g>
<g>
</g>
<g>
</g>
<g>
</g>
<g>
</g>
<g>
</g>
<g>
</g>
<g>
</g>
<g>
</g>
<g>
</g>
<g>
</g>
</svg>
