<svg xmlns="http://www.w3.org/2000/svg" xmlns:xlink="http://www.w3.org/1999/xlink" viewBox="0 0 81 81" fill="#fff" fill-rule="evenodd" stroke="#000" stroke-linecap="round" stroke-linejoin="round">
	<use xlink:href="#A" x=".5" y=".5"/>
	<symbol id="A" overflow="visible">
		<path d="M77.895 8.61H46.947V0L0 8.19V71.81L46.947 80v-7.56h30.947c1.263 0 2.105-1.05 2.105-2.1V10.71c0-1.05-.842-2.1-2.105-2.1zm-48 44.934l-5.263-.42-4-19.108c-.21.42-3.79 18.688-3.79 18.688L12 52.284 7.368 28.556l4.42-.42 2.947 18.688 4-19.318 4.842-.42 3.79 19.948 3.58-20.367 5.053-.42-6.105 27.297zm47.58 16.378h0-30.526v-6.3h23.58v-3.78h-23.58v-4.83h23.58v-3.57h-23.58v-4.83h23.58v-3.57h-23.58v-4.83h23.58v-3.57h-23.58v-4.83h23.58v-3.57h-23.58v-4.83h23.58v-3.57h-23.58v-5.88h30.526V69.92z" fill="#2c3580" stroke="none"/>
	</symbol>
</svg>