<svg xmlns="http://www.w3.org/2000/svg" xmlns:xlink="http://www.w3.org/1999/xlink" viewBox="0 0 51 65" fill="#fff" fill-rule="evenodd" stroke="#000" stroke-linecap="round" stroke-linejoin="round">
    <use xlink:href="#C" x=".5" y=".5"/>
    <defs>
        <filter id="A" x="-6%" y="-4.6875%" width="116%" height="112.5%">
            <feGaussianBlur in="SourceAlpha" stdDeviation="1"/>
            <feOffset dx="2" dy="2" result="B"/>
            <feFlood flood-color="#000" flood-opacity=".2"/>
            <feComposite in2="B" operator="in" result="C"/>
            <feMerge>
                <feMergeNode in="C"/>
                <feMergeNode in="SourceGraphic"/>
            </feMerge>
        </filter>
        <filter id="B" x="-27.5%" y="-32.5%" width="160%" height="160%">
            <feGaussianBlur in="SourceAlpha" stdDeviation="2"/>
            <feOffset dx="1" dy="-1" result="B"/>
            <feFlood flood-color="#000" flood-opacity=".2"/>
            <feComposite in2="B" operator="in" result="C"/>
            <feMerge>
                <feMergeNode in="C"/>
                <feMergeNode in="SourceGraphic"/>
            </feMerge>
        </filter>
    </defs>
    <symbol id="C" overflow="visible">
        <path d="M50 20L30 0H5a4.99 4.99 0 0 0-5 5v54a4.99 4.99 0 0 0 5 5h40a4.99 4.99 0 0 0 5-5z" fill="#03a9f4" stroke="none" filter="url(#A)"/>
        <defs/>
        <path d="M10.5 24.5h30v4h-30zm0 9h30v4h-30zm0 10h30v4h-30z" stroke="none"/>
        <g transform="matrix(-1 0 0 -1 50 20)">
            <path d="M20 20L0 0h15a4.99 4.99 0 0 1 5 5z" fill="#81d4fa" stroke="none" filter="url(#B)"/>
            <defs/>
        </g>
    </symbol>
</svg>