<svg xmlns="http://www.w3.org/2000/svg" xmlns:xlink="http://www.w3.org/1999/xlink" viewBox="0 0 81 81" fill="#fff" fill-rule="evenodd" stroke="#000" stroke-linecap="round" stroke-linejoin="round">
    <use xlink:href="#A" x=".5" y=".5"/>
    <symbol id="A" overflow="visible">
        <path d="M54.24 18.22v11.728h11.73A11.71 11.71 0 0 0 54.241 18.22zm-28.9 11.937c-1.256-.628-2.304-.42-3.56-.2-.628.2-.42.628-.42 1.047v7.54c1.256.2 2.094.42 3.35.2 1.885-.628 2.513-2.304 2.723-4.2 0-1.675-.2-3.56-2.094-4.398zM77.696 9.634H46.9V0L0 8.168v63.665L46.9 80V69.32h30.995c1.257 0 2.094-1.047 2.094-2.094v-55.29c-.2-1.257-1.047-2.304-2.304-2.304zM33.1 36.44c-.628 3.14-2.513 5.864-5.445 7.12-2.094.838-3.98.628-6.073.42v10.68l-3.98-.42c-.42-.2-1.466 0-1.466-.42V25.76c0-.628-.2-.628.42-.628l7.75-.42c2.932 0 5.654.42 7.54 2.932 1.466 2.304 1.675 5.864 1.256 8.796zm44.188 30.366H46.9v-6.492h22.4v-3.77H46.9v-4.817h22.4v-3.56H46.9v-5.445c1.675.838 3.35 1.257 5.236 1.257a11.71 11.71 0 0 0 11.728-11.728H52.147V20.314c-1.885 0-3.77.42-5.236 1.256v-9.215h30.367v54.45z" fill="#dc5b26" stroke="none"/>
    </symbol>
</svg>